<?xml version="1.0" standalone="no"?>
<!DOCTYPE svg PUBLIC "-//W3C//DTD SVG 20010904//EN"
 "http://www.w3.org/TR/2001/REC-SVG-20010904/DTD/svg10.dtd">
<svg version="1.0" xmlns="http://www.w3.org/2000/svg"
 width="24.000000pt" height="24.000000pt" viewBox="0 0 24.000000 24.000000"
 preserveAspectRatio="xMidYMid meet">

<g transform="translate(0.000000,24.000000) scale(0.100000,-0.100000)"
fill="#000000" stroke="none">
<path d="M73 225 c-62 -27 -89 -104 -58 -165 19 -36 75 -70 75 -45 0 8 -6 15
-13 15 -8 0 -22 9 -32 20 -10 11 -13 20 -7 20 6 0 14 -4 17 -10 8 -13 35 -13
35 -1 0 5 -9 12 -19 16 -23 7 -31 33 -22 75 l6 32 65 0 65 0 6 -32 c9 -42 1
-68 -22 -75 -14 -5 -19 -16 -19 -41 l0 -35 30 16 c34 18 60 62 60 102 0 41
-35 92 -75 109 -42 17 -51 17 -92 -1z"/>
</g>
</svg>
